<svg display="none" xmlns="http://www.w3.org/2000/svg">
    <symbol viewBox="0 0 103 21" id="logo-icon">
       <path d="M13.6874 8.576C13.6874 9.552 13.4634 10.448 13.0154 11.264C12.5674 12.064 11.8794 12.712 10.9514 13.208C10.0234 13.704 8.87138 13.952 7.49538 13.952H4.95138V20H0.847375V3.152H7.49538C8.83938 3.152 9.97538 3.384 10.9034 3.848C11.8314 4.312 12.5274 4.952 12.9914 5.768C13.4554 6.584 13.6874 7.52 13.6874 8.576ZM7.18338 10.688C7.96738 10.688 8.55138 10.504 8.93538 10.136C9.31938 9.768 9.51138 9.248 9.51138 8.576C9.51138 7.904 9.31938 7.384 8.93538 7.016C8.55138 6.648 7.96738 6.464 7.18338 6.464H4.95138V10.688H7.18338ZM21.9199 20.192C20.6079 20.192 19.4239 19.912 18.3679 19.352C17.3279 18.792 16.5039 17.992 15.8959 16.952C15.3039 15.912 15.0079 14.696 15.0079 13.304C15.0079 11.928 15.3119 10.72 15.9199 9.68C16.5279 8.624 17.3599 7.816 18.4159 7.256C19.4719 6.696 20.6559 6.416 21.9679 6.416C23.2799 6.416 24.4639 6.696 25.5199 7.256C26.5759 7.816 27.4079 8.624 28.0159 9.68C28.6239 10.72 28.9279 11.928 28.9279 13.304C28.9279 14.68 28.6159 15.896 27.9919 16.952C27.3839 17.992 26.5439 18.792 25.4719 19.352C24.4159 19.912 23.2319 20.192 21.9199 20.192ZM21.9199 16.64C22.7039 16.64 23.3679 16.352 23.9119 15.776C24.4719 15.2 24.7519 14.376 24.7519 13.304C24.7519 12.232 24.4799 11.408 23.9359 10.832C23.4079 10.256 22.7519 9.968 21.9679 9.968C21.1679 9.968 20.5039 10.256 19.9759 10.832C19.4479 11.392 19.1839 12.216 19.1839 13.304C19.1839 14.376 19.4399 15.2 19.9519 15.776C20.4799 16.352 21.1359 16.64 21.9199 16.64ZM35.2092 8.84C35.6892 8.104 36.2892 7.528 37.0092 7.112C37.7292 6.68 38.5292 6.464 39.4092 6.464V10.808H38.2812C37.2572 10.808 36.4892 11.032 35.9772 11.48C35.4652 11.912 35.2092 12.68 35.2092 13.784V20H31.1052V6.608H35.2092V8.84ZM48.8348 16.52V20H46.7468C45.2588 20 44.0988 19.64 43.2668 18.92C42.4348 18.184 42.0188 16.992 42.0188 15.344V10.016H40.3868V6.608H42.0188V3.344H46.1228V6.608H48.8108V10.016H46.1228V15.392C46.1228 15.792 46.2188 16.08 46.4108 16.256C46.6028 16.432 46.9228 16.52 47.3708 16.52H48.8348ZM57.8408 10.016H55.6328V20H51.5288V10.016H50.0408V6.608H51.5288V6.224C51.5288 4.576 52.0008 3.328 52.9448 2.48C53.8888 1.616 55.2728 1.184 57.0968 1.184C57.4008 1.184 57.6248 1.192 57.7688 1.208V4.688C56.9848 4.64 56.4328 4.752 56.1128 5.024C55.7928 5.296 55.6328 5.784 55.6328 6.488V6.608H57.8408V10.016ZM65.8653 20.192C64.5533 20.192 63.3693 19.912 62.3133 19.352C61.2733 18.792 60.4493 17.992 59.8413 16.952C59.2493 15.912 58.9533 14.696 58.9533 13.304C58.9533 11.928 59.2573 10.72 59.8652 9.68C60.4733 8.624 61.3053 7.816 62.3613 7.256C63.4173 6.696 64.6013 6.416 65.9133 6.416C67.2253 6.416 68.4093 6.696 69.4653 7.256C70.5213 7.816 71.3533 8.624 71.9613 9.68C72.5693 10.72 72.8733 11.928 72.8733 13.304C72.8733 14.68 72.5613 15.896 71.9373 16.952C71.3293 17.992 70.4893 18.792 69.4173 19.352C68.3613 19.912 67.1773 20.192 65.8653 20.192ZM65.8653 16.64C66.6493 16.64 67.3133 16.352 67.8573 15.776C68.4173 15.2 68.6973 14.376 68.6973 13.304C68.6973 12.232 68.4253 11.408 67.8813 10.832C67.3533 10.256 66.6973 9.968 65.9133 9.968C65.1133 9.968 64.4493 10.256 63.9213 10.832C63.3933 11.392 63.1293 12.216 63.1293 13.304C63.1293 14.376 63.3853 15.2 63.8973 15.776C64.4253 16.352 65.0813 16.64 65.8653 16.64ZM79.1545 2.24V20H75.0505V2.24H79.1545ZM84.1926 5.216C83.4726 5.216 82.8806 5.008 82.4166 4.592C81.9686 4.16 81.7446 3.632 81.7446 3.008C81.7446 2.368 81.9686 1.84 82.4166 1.424C82.8806 0.991999 83.4726 0.775999 84.1926 0.775999C84.8966 0.775999 85.4726 0.991999 85.9206 1.424C86.3846 1.84 86.6166 2.368 86.6166 3.008C86.6166 3.632 86.3846 4.16 85.9206 4.592C85.4726 5.008 84.8966 5.216 84.1926 5.216ZM86.2326 6.608V20H82.1286V6.608H86.2326ZM95.3028 20.192C93.9908 20.192 92.8068 19.912 91.7508 19.352C90.7108 18.792 89.8868 17.992 89.2788 16.952C88.6868 15.912 88.3908 14.696 88.3908 13.304C88.3908 11.928 88.6948 10.72 89.3027 9.68C89.9108 8.624 90.7428 7.816 91.7988 7.256C92.8548 6.696 94.0388 6.416 95.3508 6.416C96.6628 6.416 97.8468 6.696 98.9028 7.256C99.9588 7.816 100.791 8.624 101.399 9.68C102.007 10.72 102.311 11.928 102.311 13.304C102.311 14.68 101.999 15.896 101.375 16.952C100.767 17.992 99.9268 18.792 98.8548 19.352C97.7988 19.912 96.6148 20.192 95.3028 20.192ZM95.3028 16.64C96.0868 16.64 96.7508 16.352 97.2948 15.776C97.8548 15.2 98.1348 14.376 98.1348 13.304C98.1348 12.232 97.8628 11.408 97.3188 10.832C96.7908 10.256 96.1348 9.968 95.3508 9.968C94.5508 9.968 93.8868 10.256 93.3588 10.832C92.8308 11.392 92.5668 12.216 92.5668 13.304C92.5668 14.376 92.8228 15.2 93.3348 15.776C93.8628 16.352 94.5188 16.64 95.3028 16.64Z"/>
    </symbol>
    <symbol viewBox="0 0 30 30" id="facebook-icon">
        <path d="M25.6055 0H4.39453C1.97159 0 0 1.97159 0 4.39453V25.6055C0 28.0284 1.97159 30 4.39453 30H13.2422V19.3945H9.72656V14.1211H13.2422V10.5469C13.2422 7.63893 15.6077 5.27344 18.5156 5.27344H23.8477V10.5469H18.5156V14.1211H23.8477L22.9688 19.3945H18.5156V30H25.6055C28.0284 30 30 28.0284 30 25.6055V4.39453C30 1.97159 28.0284 0 25.6055 0Z"/>
    </symbol>
    <symbol viewBox="0 0 30 30" id="instagram-icon">
        <path d="M21.7209 0H8.27874C3.71384 0 0 3.71402 0 8.27892V21.7211C0 26.2862 3.71384 30 8.27874 30H21.7209C26.2862 30 30 26.286 30 21.7211V8.27892C30.0002 3.71402 26.2862 0 21.7209 0ZM27.3384 21.7211C27.3384 24.8185 24.8185 27.3383 21.7211 27.3383H8.27874C5.18153 27.3384 2.66175 24.8185 2.66175 21.7211V8.27892C2.66175 5.18171 5.18153 2.66175 8.27874 2.66175H21.7209C24.8183 2.66175 27.3383 5.18171 27.3383 8.27892V21.7211H27.3384Z"/>
        <path d="M15 7.27014C10.7375 7.27014 7.26978 10.7379 7.26978 15.0004C7.26978 19.2627 10.7375 22.7303 15 22.7303C19.2625 22.7303 22.7303 19.2627 22.7303 15.0004C22.7303 10.7379 19.2625 7.27014 15 7.27014ZM15 20.0683C12.2054 20.0683 9.93152 17.7949 9.93152 15.0002C9.93152 12.2054 12.2052 9.93171 15 9.93171C17.7948 9.93171 20.0685 12.2054 20.0685 15.0002C20.0685 17.7949 17.7947 20.0683 15 20.0683Z"/>
        <path d="M23.0545 5.01318C22.5417 5.01318 22.0379 5.2208 21.6757 5.58457C21.3118 5.94657 21.1025 6.45053 21.1025 6.96513C21.1025 7.47814 21.3119 7.98192 21.6757 8.34569C22.0377 8.70769 22.5417 8.91708 23.0545 8.91708C23.5691 8.91708 24.0713 8.70769 24.435 8.34569C24.7988 7.98192 25.0064 7.47796 25.0064 6.96513C25.0064 6.45053 24.7988 5.94657 24.435 5.58457C24.073 5.2208 23.5691 5.01318 23.0545 5.01318Z"/>
    </symbol>
    <symbol viewBox="0 0 37 30" id="twitter-icon">
        <path d="M36.9231 3.55154C35.55 4.15385 34.0869 4.55308 32.5615 4.74692C34.1308 3.81 35.3285 2.33769 35.8915 0.563077C34.4285 1.43538 32.8131 2.05154 31.0915 2.39538C29.7023 0.916154 27.7223 0 25.5623 0C21.3715 0 17.9977 3.40154 17.9977 7.57154C17.9977 8.17154 18.0485 8.74846 18.1731 9.29769C11.88 8.99077 6.31154 5.97462 2.57077 1.38C1.91769 2.51308 1.53462 3.81 1.53462 5.20615C1.53462 7.82769 2.88462 10.1515 4.89692 11.4969C3.68077 11.4738 2.48769 11.1208 1.47692 10.5646C1.47692 10.5877 1.47692 10.6177 1.47692 10.6477C1.47692 14.3262 4.10077 17.3815 7.54154 18.0854C6.92538 18.2538 6.25385 18.3346 5.55692 18.3346C5.07231 18.3346 4.58308 18.3069 4.12385 18.2054C5.10462 21.2031 7.88769 23.4069 11.1969 23.4785C8.62154 25.4931 5.35154 26.7069 1.81154 26.7069C1.19077 26.7069 0.595385 26.6792 0 26.6031C3.35308 28.7654 7.32692 30 11.6123 30C25.5415 30 33.1569 18.4615 33.1569 8.46C33.1569 8.12538 33.1454 7.80231 33.1292 7.48154C34.6315 6.41538 35.8938 5.08385 36.9231 3.55154Z"/>
    </symbol>
    <symbol viewBox="0 0 30 30" id="linkedin-icon">
        <path d="M25.6055 0H4.39453C1.97159 0 0 1.97159 0 4.39453V25.6055C0 28.0284 1.97159 30 4.39453 30H25.6055C28.0284 30 30 28.0284 30 25.6055V4.39453C30 1.97159 28.0284 0 25.6055 0ZM10.6055 23.7891H7.08984V11.4844H10.6055V23.7891ZM10.6055 9.72656H7.08984V6.21094H10.6055V9.72656ZM22.9102 23.7891H19.3945V16.7578C19.3945 15.7887 18.6058 15 17.6367 15C16.6676 15 15.8789 15.7887 15.8789 16.7578V23.7891H12.3633V11.4844H15.8789V12.147C16.7999 11.8607 17.3982 11.4844 18.5156 11.4844C20.8999 11.4869 22.9102 13.6258 22.9102 16.1536V23.7891Z"/>
    </symbol>

    <symbol viewBox="0 0 365 486" id="switch-icon">
       <path d="M182.606 60.651C115.617 60.651 61.3039 114.966 61.3039 181.955C61.3039 242.606 121.955 304.205 121.955 363.906H243.255C243.255 302.31 303.908 242.606 303.908 181.955C303.908 114.966 249.598 60.651 182.606 60.651ZM246.662 258.625C234.579 282.646 222.229 307.289 216.396 333.584H148.667C142.833 308.087 130.75 283.832 118.933 260.138C104.894 231.916 91.6279 205.263 91.6279 181.955C91.6279 131.788 132.44 90.977 182.606 90.977C232.772 90.977 273.585 131.788 273.585 181.955C273.586 204.997 260.49 231.058 246.662 258.625ZM243.255 439.727C243.255 448.105 236.479 454.886 228.097 454.886H225.311C219.066 472.536 202.386 485.212 182.607 485.212C162.823 485.212 146.15 472.536 139.901 454.886H137.117C128.737 454.886 121.956 448.105 121.956 439.727C121.956 431.345 128.737 424.559 137.117 424.559H228.097C236.479 424.559 243.255 431.345 243.255 439.727ZM243.255 394.237C243.255 402.62 236.479 409.396 228.097 409.396H137.117C128.737 409.396 121.956 402.62 121.956 394.237C121.956 385.855 128.737 379.074 137.117 379.074H228.097C236.479 379.074 243.255 385.855 243.255 394.237ZM32.6059 77.831L59.9109 93.612C53.9889 101.817 48.8659 110.523 44.6609 119.822L17.4419 104.124L32.6059 77.831ZM182.606 30.327C177.395 30.327 172.508 31.335 167.442 31.867V0H197.769V31.867C192.706 31.334 187.819 30.327 182.606 30.327ZM94.2629 59.26L78.4809 31.955L104.778 16.789L120.475 44.005C111.174 48.213 102.47 53.337 94.2629 59.26ZM320.584 119.822C316.374 110.523 311.227 101.817 305.304 93.616L332.607 77.83L347.77 104.129L320.584 119.822ZM270.945 59.232C262.772 53.337 254.036 48.213 244.771 44.006L260.466 16.79L286.704 31.956L270.945 59.232ZM32.5759 197.119H0.650879V166.795H32.5179C31.9859 171.858 30.9779 176.743 30.9779 181.956C30.9779 187.108 31.9859 192.085 32.5759 197.119ZM364.562 166.794V197.118H332.639C333.227 192.084 334.236 187.107 334.236 181.954C334.236 176.741 333.227 171.857 332.696 166.793H364.562V166.794ZM320.229 243.911L347.769 259.784L332.606 286.055L307.787 271.723C312.258 262.565 316.406 253.329 320.229 243.911ZM44.8669 243.967C48.6289 253.389 52.7759 262.686 57.2159 271.867L32.6069 286.055L17.4429 259.784L44.8669 243.967Z"/>
    </symbol>

    <symbol width="33" height="18" viewBox="0 0 33 18" id="burger-icon">
        <line x1="0" y1="2" x2="33" y2="2" stroke-width="3"/>
        <line x1="0" y1="9" x2="33" y2="9"  stroke-width="3"/>
        <line x1="0" y1="16" x2="33" y2="16"  stroke-width="3"/>
    </symbol>

    <symbol width="25" height="22" viewBox="0 0 25 22" id="cross-icon">
        <line x1="0" y1="0" x2="25" y2="22"  stroke-width="3"/>
        <line x1="0" y1="22" x2="25" y2="0"  stroke-width="3"/>
    </symbol>
</svg>
